<?xml version="1.0" encoding="utf-8"?>
<!-- Generator: Adobe Illustrator 12.0.1, SVG Export Plug-In  -->
<!DOCTYPE svg PUBLIC "-//W3C//DTD SVG 1.1//EN" "http://www.w3.org/Graphics/SVG/1.1/DTD/svg11.dtd" [
	<!ENTITY ns_flows "http://ns.adobe.com/Flows/1.0/">
	<!ENTITY ns_svg "http://www.w3.org/2000/svg">
	<!ENTITY ns_xlink "http://www.w3.org/1999/xlink">
]>
<svg  version="1.1" xmlns="&ns_svg;" xmlns:xlink="&ns_xlink;" xmlns:a="http://ns.adobe.com/AdobeSVGViewerExtensions/3.0/"
	 width="1260" height="216" viewBox="0 0 1260 216" enable-background="new 0 0 1260 216" xml:space="preserve">
<defs>
</defs>
<g>
	<g>
		<g enable-background="new    ">
			<path d="M42.184,102.185c0.199-0.319,0.322-0.62,0.365-0.89c0.072-0.503-0.155-1.111-0.637-1.708
				c-1.189-1.479-3.593-2.578-5.261-2.419c-2.656,0.254-5.12,2.531-5.527,5.106c-0.401,2.584,1.422,4.534,4.095,4.322
				C37.422,106.427,41.012,104.052,42.184,102.185z"/>
			<path d="M68.71,98.624c0.189-1.533-1.58-2.917-5.488-4.321c-11.756-4.225-18.682-14.747-20.98-30.772c0,0-0.012-0.08-0.019-0.153
				c-0.05-0.045-0.095-0.085-0.095-0.085c-0.55-0.509-1.266-1.019-1.977-0.405c-1.541,1.298-0.553,6.879,3.137,22.537
				c0,0,1.438,6.172,1.438,6.179c0.79,3.511,0.966,6.302,0.577,9.056c-0.398,2.763-1.406,5.711-3.276,9.551l-3.406,6.92
				c-9.094,18.381-12.118,25.174-10.872,26.426c0.589,0.582,1.56-0.164,2.339-0.881c0,0,0.074-0.063,0.142-0.123
				c0.039-0.088,0.067-0.176,0.067-0.176c2.446-5.951,5.14-11.256,8.082-15.939c6.504-10.357,14.355-17.839,23.614-22.383
				c3.461-1.702,5.527-3.141,6.338-4.427C68.545,99.281,68.676,98.956,68.71,98.624z"/>
			<path d="M149.725,66.679c0,0,0.113,0.011,0.216,0.016c0.103-0.051,0.21-0.091,0.21-0.091c0.906-0.396,1.914-0.899,2.333-1.568
				c0.142-0.231,0.227-0.478,0.203-0.754c-0.17-2.253-8.409-2.52-30.303-2.152c0,0-7.854,0.103-7.865,0.108
				c-4.256,0.026-7.229-0.432-9.655-1.483c-2.391-1.047-4.451-2.755-6.697-5.525c0,0-3.913-4.912-3.913-4.916
				C84.464,37.9,80.829,33.901,78.995,35.028c-0.224,0.135-0.377,0.303-0.499,0.494c-0.351,0.563-0.351,1.329-0.3,1.98
				c0,0,0.008,0.085,0.018,0.164c0.045,0.051,0.093,0.1,0.093,0.1C89.049,48.662,93.015,62,89.437,77.052
				c-1.156,4.894-1.127,7.481,0.112,8.11c1.235,0.641,3.744-0.68,7.909-4.162C110.663,69.95,127.888,65.03,149.725,66.679z"/>
			<path d="M114.427,44.803c-2.349-0.908-5.759,0.791-7.645,3.789c-1.795,2.857-2.063,8.357-0.422,9.057
				c1.654,0.71,7.087-2.717,8.917-5.637C117.197,48.959,116.801,45.72,114.427,44.803z"/>
			<path d="M84.263,148.295c0,0,5.469-6.775,5.471-6.775c3.066-3.758,5.688-6.191,8.515-7.887c2.84-1.697,6.15-2.797,10.771-3.584
				l8.483-1.398c23.535-3.779,32.381-5.646,32.743-8.23c0.17-1.193-1.24-1.758-2.486-2.119c0,0-0.108-0.029-0.215-0.059
				c-0.118,0.021-0.232,0.049-0.232,0.049c-23.451,5.988-41.108,3.688-53.006-6.047c-3.649-2.984-5.997-3.929-7.424-3.031
				c-0.295,0.193-0.558,0.465-0.781,0.822c-0.85,1.346-1.19,3.936-1.061,7.994c0.349,11.256-3.097,22.818-10.294,34.271
				c-3.243,5.178-7.232,10.279-11.927,15.287c0,0-0.073,0.084-0.139,0.158c-0.037,0.098-0.066,0.199-0.066,0.199
				c-0.348,1.184-0.627,2.613,0.211,3.127C64.636,172.182,69.986,166.105,84.263,148.295z"/>
			<path d="M98.791,147.389c0.804,1.771,2.222,3.086,3.897,3.59c1.348,0.404,2.764,0.256,3.976-0.443
				c1.212-0.695,2.146-1.883,2.627-3.359c0.612-1.834,0.477-3.91-0.374-5.68c-1.504-3.16-6.845-6.156-8.799-4.998
				c-0.26,0.158-0.523,0.436-0.759,0.816c-0.229,0.367-0.437,0.814-0.617,1.355C97.836,141.34,97.846,145.332,98.791,147.389z"/>
		</g>
		<g enable-background="new    ">
			<path d="M200.223,88.407c0.204-0.163,0.317-0.381,0.323-0.606c-0.006-0.223-0.125-0.424-0.341-0.549
				c-1.567-0.969-35.938-21.836-64.87-14.313c-0.237,0.064-0.442,0.213-0.56,0.401c-0.058,0.1-0.103,0.207-0.113,0.326
				c-0.028,0.319,0.209,0.572,0.56,0.595c19.13,1.36,37.772,11.618,43.283,14.892l0.923,0.54l-0.929,0.702
				c-5.584,4.214-24.99,18.063-44.971,23.105c-0.373,0.104-0.65,0.42-0.65,0.77c-0.011,0.352,0.255,0.629,0.629,0.652
				C163.25,117.555,198.682,89.63,200.223,88.407z"/>
			<path d="M79.172,48.439c0.246-0.188,0.374-0.5,0.293-0.751c-5.642-18.243-29.76-22.409-30.724-22.564
				c-0.124-0.028-0.271,0.019-0.407,0.124c-0.136,0.097-0.237,0.243-0.286,0.396c-0.359,1.172-8.752,29.331,1.018,43.954
				c0.13,0.194,0.404,0.229,0.64,0.059c0.24-0.158,0.379-0.469,0.333-0.722c-2.35-13.206,1.377-29.07,2.555-33.554l0.192-0.732
				l0.601,0.145c3.653,0.873,16.688,4.513,25.07,13.655C78.62,48.629,78.918,48.624,79.172,48.439z"/>
			<path d="M66.846,153.605c0.153-0.346,0.086-0.701-0.149-0.889l0,0c-0.229-0.176-0.568-0.113-0.806,0.146
				c-12.276,13.662-28.905,21.391-33.577,23.393l-0.756,0.314l0.043-0.941c0.231-5.662,1.528-24.906,8.341-41.084
				c0.124-0.313,0.067-0.645-0.145-0.775c-0.206-0.137-0.507-0.043-0.717,0.199c-15.505,19.457-16.45,54.641-16.484,56.197
				c-0.006,0.205,0.063,0.385,0.182,0.504c0.119,0.113,0.294,0.143,0.447,0.086C24.47,190.303,55.162,178.969,66.846,153.605z"/>
		</g>
	</g>
</g>
<path d="M273.661,132.822h9.605v9.006h0.215c2.973-6.422,10.172-10.316,17.676-10.316c13.947,0,20.184,9.117,20.184,24.348v33.707
	h-9.963v-29.391c0-13.221-2.742-19.643-11.4-20.207c-11.309,0-16.371,9.561-16.371,23.338v26.26h-9.945V132.822z"/>
<path d="M367.342,136.85c4.941-3.145,10.883-5.338,17.748-5.338c15.418,0,21.629,8.008,21.629,23.438v23.488
	c0,6.469,0.242,9.459,0.453,11.129h-9.316v-7.352h-0.18c-2.363,3.457-7.625,8.67-16.73,8.67c-11.611,0-19.744-5.334-19.744-17.68
	c0-14.25,14.777-18.693,25.049-18.693c3.91,0,6.629,0,10.547,0.254c0-9.801-3.363-14.797-13.289-14.797
	c-5.631,0-11.643,2.203-15.643,5.775L367.342,136.85 M396.797,162.529c-2.125,0-4.203-0.225-6.344-0.225
	c-5.363,0-18.701,0.889-18.701,10.9c0,6.018,5.504,9.258,10.049,9.258c9.828,0,14.996-6.465,14.996-14.928V162.529z"/>
<path d="M445.828,141.969c-1.414-0.336-2.848-0.436-4.105-0.436c-9.355,0-15.48,8.902-15.48,23.156v24.877h-10.469v-56.285h9.813
	v9.258h0.207c2.793-5.906,8.805-10.131,14.801-10.131c2.289,0,3.75,0.172,5.234,0.441V141.969z"/>
<path d="M498.094,131.512c16.359,0,27.371,12.449,27.371,29.703c0,16.227-11.195,29.67-27.371,29.67
	c-16.305,0-27.473-13.443-27.473-29.67C470.621,143.961,481.586,131.512,498.094,131.512 M498.094,182.463
	c11.609,0,16.805-11.115,16.805-21.248c0-10.797-6.246-21.246-16.805-21.246c-10.688,0-16.906,10.449-16.906,21.246
	C481.188,171.348,486.34,182.463,498.094,182.463z"/>
<path d="M357.195,132.822h-14.547v-16.463l-10.414,3.338v13.068l-8.58,8.564h8.58v33.105c0,11.348,6.66,16.449,17.453,16.449
	c3.088,0,6.135-0.752,8.438-1.406v-8.785c-1.557,0.928-3.783,1.77-6.65,1.77c-4.793,0-8.826-3.572-8.826-10.143v-31.037h14.547
	V132.822z"/>
<rect x="452.32" y="132.822" width="10.449" height="56.744"/>
<path d="M457.527,125.258c3.535,0,6.387-2.85,6.387-6.404c0-3.547-2.852-6.396-6.387-6.396c-3.551,0-6.418,2.85-6.418,6.396
	C451.109,122.408,453.977,125.258,457.527,125.258z"/>
<path d="M230.254,110.611c22.437,0,35.552,17.111,35.552,40.117c0,23.588-13.019,40.156-35.552,40.156
	c-22.498,0-35.491-16.568-35.491-40.156C194.763,127.723,207.875,110.611,230.254,110.611 M230.254,181.117
	c17.029,0,24.334-14.916,24.334-30.389c0-15.771-8.036-30.453-24.334-30.35c-16.242-0.104-24.278,14.578-24.278,30.35
	C205.976,166.201,213.289,181.117,230.254,181.117z"/>
<path d="M573.358,97.837v-31.25h5.684l10.707,27.85l10.602-27.85h5.727v31.25h-3.438V69.504l-10.791,28.333h-4.262l-10.791-28.333
	v28.333H573.358z"/>
<path d="M613.649,97.837v-31.25h3.5v31.25H613.649z"/>
<path d="M624.694,97.837v-31.25h5.334l16.947,27.893V66.587h3.438v31.25h-5.334l-16.947-27.934v27.934H624.694z"/>
<path d="M658.015,97.837v-31.25h3.5v31.25H658.015z"/>
<path d="M668.215,87.642h3.5v0.588c0,1.862,0.14,3.234,0.419,4.117s0.74,1.506,1.383,1.869c0.504,0.28,1.279,0.48,2.326,0.6
	c1.049,0.119,3.207,0.178,6.477,0.178c1.773,0,3.15-0.115,4.128-0.347s1.704-0.605,2.18-1.124c0.265-0.279,0.46-0.756,0.587-1.428
	c0.125-0.672,0.188-1.582,0.188-2.73c0-2.324-0.235-3.784-0.704-4.379c-0.471-0.596-1.398-0.949-2.785-1.062l-9.629-0.757
	c-2.88-0.223-4.871-0.944-5.976-2.162s-1.656-3.269-1.656-6.152c0-1.819,0.182-3.282,0.545-4.389c0.363-1.105,0.95-2.022,1.762-2.75
	c0.629-0.561,1.51-0.955,2.642-1.187c1.133-0.231,3.132-0.347,5.998-0.347h1.111c3.207,0,5.466,0.154,6.775,0.462
	s2.405,0.84,3.287,1.595c0.603,0.504,1.047,1.222,1.334,2.152s0.432,2.089,0.432,3.475c0,0.405-0.004,0.717-0.011,0.934
	s-0.018,0.409-0.031,0.577h-3.5v-0.777c0-1.147-0.066-2.026-0.199-2.636s-0.347-1.061-0.64-1.355
	c-0.434-0.434-1.207-0.738-2.318-0.913s-3.22-0.263-6.324-0.263c-3.217,0-5.237,0.364-6.063,1.092
	c-0.825,0.729-1.237,2.186-1.237,4.369c0,1.793,0.269,3.029,0.808,3.708c0.538,0.679,1.576,1.081,3.115,1.208l9.816,0.818
	c2.578,0.225,4.387,0.935,5.424,2.131c1.037,1.197,1.556,3.195,1.556,5.995c0,2.044-0.134,3.581-0.399,4.609
	s-0.707,1.886-1.322,2.572c-0.757,0.854-1.775,1.452-3.057,1.796c-1.281,0.342-3.616,0.514-7.004,0.514h-1.553
	c-2.879,0-4.916-0.146-6.111-0.441c-1.195-0.293-2.191-0.805-2.987-1.531c-0.782-0.672-1.359-1.582-1.729-2.729
	c-0.371-1.147-0.556-2.603-0.556-4.366V87.642z"/>
<path d="M695.463,69.899v-3.313h23.406v3.313h-10v27.938H705.4V69.899H695.463z"/>
<path d="M722.157,97.837v-31.25h14.096c3.518,0,5.938,0.521,7.262,1.564s1.986,2.9,1.986,5.574v4.731c0,1.639-0.333,2.924-1,3.854
	c-0.667,0.932-1.682,1.517-3.044,1.754c1.488,0.35,2.534,0.986,3.139,1.908c0.604,0.922,0.905,2.375,0.905,4.359v7.504h-3.625
	v-6.435c0-2.235-0.354-3.748-1.059-4.538c-0.707-0.789-2.088-1.184-4.145-1.184h-11.078v12.156H722.157z M735.562,69.899h-9.967
	v12.531h9.967c2.602,0,4.304-0.322,5.108-0.967c0.804-0.645,1.206-1.802,1.206-3.47v-3.658c0-1.696-0.388-2.859-1.164-3.49
	S738.218,69.899,735.562,69.899z"/>
<path d="M762.942,97.837h-3.406v-13.83l-12.938-17.42h4.076l10.544,14.564l10.537-14.564h4.093l-12.906,17.356V97.837z"/>
<path d="M791.348,76.891c0-3.989,0.825-6.772,2.476-8.347c1.65-1.576,4.581-2.363,8.791-2.363h3.946c4.26,0,7.206,0.777,8.839,2.331
	c1.632,1.554,2.448,4.347,2.448,8.379v10.611c0,4.004-0.831,6.79-2.491,8.358s-4.592,2.352-8.796,2.352h-3.946
	c-4.21,0-7.141-0.783-8.791-2.352s-2.476-4.354-2.476-8.358V76.891z M805.532,69.431h-1.932c-2.197,0-3.75,0.119-4.66,0.357
	s-1.693,0.637-2.352,1.197c-0.615,0.533-1.049,1.251-1.301,2.154s-0.378,2.455-0.378,4.654v8.867c0,2.186,0.126,3.724,0.378,4.613
	s0.686,1.6,1.301,2.133c0.658,0.561,1.441,0.959,2.352,1.197s2.463,0.357,4.66,0.357h1.932c2.197,0,3.757-0.119,4.681-0.357
	s1.714-0.637,2.372-1.197c0.602-0.519,1.025-1.212,1.27-2.08c0.246-0.869,0.368-2.424,0.368-4.666v-8.909
	c0-2.199-0.126-3.751-0.378-4.654s-0.686-1.622-1.301-2.153c-0.645-0.547-1.422-0.936-2.331-1.167S807.743,69.431,805.532,69.431z"
	/>
<path d="M824.388,97.837v-31.25h19.531v3.313h-16.094v10.219h15.61v3.188h-15.61v14.531H824.388z"/>
<path d="M860.156,69.899v-3.313h23.406v3.313h-10v27.938h-3.469V69.899H860.156z"/>
<path d="M886.851,97.837v-31.25h14.096c3.518,0,5.938,0.521,7.262,1.564s1.986,2.9,1.986,5.574v4.731c0,1.639-0.333,2.924-1,3.854
	c-0.667,0.932-1.682,1.517-3.044,1.754c1.488,0.35,2.534,0.986,3.139,1.908c0.604,0.922,0.905,2.375,0.905,4.359v7.504h-3.625
	v-6.435c0-2.235-0.354-3.748-1.059-4.538c-0.707-0.789-2.088-1.184-4.145-1.184h-11.078v12.156H886.851z M900.255,69.899h-9.967
	v12.531h9.967c2.602,0,4.304-0.322,5.108-0.967c0.804-0.645,1.206-1.802,1.206-3.47v-3.658c0-1.696-0.388-2.859-1.164-3.49
	S902.911,69.899,900.255,69.899z"/>
<path d="M913.604,97.837l11.547-31.25h5.688l11.608,31.25h-3.568l-2.98-8h-15.808l-2.918,8H913.604z M921.246,86.743h13.54
	l-6.234-16.842h-1.113L921.246,86.743z"/>
<path d="M946.669,97.837v-31.25h5.334l16.947,27.893V66.587h3.438v31.25h-5.334l-16.947-27.934v27.934H946.669z"/>
<path d="M979.146,87.642h3.5v0.588c0,1.862,0.141,3.234,0.42,4.117s0.74,1.506,1.383,1.869c0.503,0.28,1.278,0.48,2.326,0.6
	s3.206,0.178,6.476,0.178c1.774,0,3.15-0.115,4.128-0.347c0.979-0.231,1.705-0.605,2.18-1.124c0.266-0.279,0.461-0.756,0.587-1.428
	s0.188-1.582,0.188-2.73c0-2.324-0.234-3.784-0.704-4.379c-0.47-0.596-1.397-0.949-2.785-1.062l-9.628-0.757
	c-2.881-0.223-4.872-0.944-5.977-2.162c-1.104-1.218-1.656-3.269-1.656-6.152c0-1.819,0.182-3.282,0.545-4.389
	c0.363-1.105,0.951-2.022,1.762-2.75c0.629-0.561,1.51-0.955,2.643-1.187s3.131-0.347,5.998-0.347h1.111
	c3.207,0,5.465,0.154,6.775,0.462c1.309,0.308,2.404,0.84,3.287,1.595c0.602,0.504,1.047,1.222,1.334,2.152s0.431,2.089,0.431,3.475
	c0,0.405-0.003,0.717-0.011,0.934c-0.006,0.217-0.018,0.409-0.031,0.577h-3.5v-0.777c0-1.147-0.066-2.026-0.199-2.636
	s-0.346-1.061-0.639-1.355c-0.434-0.434-1.207-0.738-2.318-0.913c-1.112-0.175-3.221-0.263-6.324-0.263
	c-3.217,0-5.238,0.364-6.063,1.092c-0.826,0.729-1.238,2.186-1.238,4.369c0,1.793,0.27,3.029,0.809,3.708
	c0.537,0.679,1.576,1.081,3.115,1.208l9.816,0.818c2.578,0.225,4.387,0.935,5.424,2.131c1.037,1.197,1.555,3.195,1.555,5.995
	c0,2.044-0.133,3.581-0.398,4.609c-0.267,1.028-0.707,1.886-1.323,2.572c-0.757,0.854-1.774,1.452-3.056,1.796
	c-1.281,0.342-3.617,0.514-7.005,0.514h-1.552c-2.88,0-4.917-0.146-6.111-0.441c-1.195-0.293-2.191-0.805-2.988-1.531
	c-0.782-0.672-1.359-1.582-1.729-2.729c-0.371-1.147-0.557-2.603-0.557-4.366V87.642z"/>
<path d="M1010.644,97.837v-31.25h13.156c3.518,0,5.939,0.521,7.264,1.564s1.986,2.9,1.986,5.574v4.731
	c0,2.74-0.654,4.634-1.965,5.683s-3.739,1.572-7.285,1.572h-9.719v12.125H1010.644z M1029.425,78.457v-4.604
	c0-1.514-0.354-2.551-1.06-3.111c-0.707-0.561-2.243-0.842-4.607-0.842h-9.677v12.531h9.677c2.323,0,3.849-0.287,4.575-0.861
	C1029.062,80.994,1029.425,79.957,1029.425,78.457z"/>
<path d="M1037.8,76.891c0-3.989,0.825-6.772,2.476-8.347c1.65-1.576,4.581-2.363,8.791-2.363h3.946c4.26,0,7.205,0.777,8.838,2.331
	s2.449,4.347,2.449,8.379v10.611c0,4.004-0.83,6.79-2.49,8.358c-1.661,1.568-4.594,2.352-8.797,2.352h-3.946
	c-4.21,0-7.141-0.783-8.791-2.352s-2.476-4.354-2.476-8.358V76.891z M1051.984,69.431h-1.932c-2.197,0-3.751,0.119-4.66,0.357
	s-1.693,0.637-2.351,1.197c-0.616,0.533-1.05,1.251-1.302,2.154s-0.378,2.455-0.378,4.654v8.867c0,2.186,0.126,3.724,0.378,4.613
	s0.686,1.6,1.302,2.133c0.657,0.561,1.441,0.959,2.351,1.197s2.463,0.357,4.66,0.357h1.932c2.196,0,3.757-0.119,4.681-0.357
	s1.715-0.637,2.373-1.197c0.602-0.519,1.023-1.212,1.27-2.08c0.244-0.869,0.367-2.424,0.367-4.666v-8.909
	c0-2.199-0.126-3.751-0.378-4.654s-0.687-1.622-1.302-2.153c-0.644-0.547-1.42-0.936-2.33-1.167S1054.195,69.431,1051.984,69.431z"
	/>
<path d="M1070.84,97.837v-31.25h14.096c3.517,0,5.938,0.521,7.262,1.564s1.986,2.9,1.986,5.574v4.731
	c0,1.639-0.333,2.924-1.001,3.854c-0.666,0.932-1.682,1.517-3.043,1.754c1.488,0.35,2.534,0.986,3.139,1.908
	c0.604,0.922,0.905,2.375,0.905,4.359v7.504h-3.625v-6.435c0-2.235-0.354-3.748-1.06-4.538c-0.707-0.789-2.088-1.184-4.144-1.184
	h-11.078v12.156H1070.84z M1084.243,69.899h-9.966v12.531h9.966c2.602,0,4.305-0.322,5.109-0.967
	c0.804-0.645,1.206-1.802,1.206-3.47v-3.658c0-1.696-0.388-2.859-1.165-3.49C1088.618,70.215,1086.9,69.899,1084.243,69.899z"/>
<path d="M1095.9,69.899v-3.313h23.406v3.313h-10v27.938h-3.469V69.899H1095.9z"/>
<path d="M1115.776,97.837l11.546-31.25h5.688l11.609,31.25h-3.568l-2.981-8h-15.808l-2.918,8H1115.776z M1123.417,86.743h13.541
	l-6.234-16.842h-1.113L1123.417,86.743z"/>
<path d="M1141.084,69.899v-3.313h23.406v3.313h-10v27.938h-3.469V69.899H1141.084z"/>
<path d="M1167.778,97.837v-31.25h3.5v31.25H1167.778z"/>
<path d="M1177.823,76.891c0-3.989,0.824-6.772,2.475-8.347c1.65-1.576,4.582-2.363,8.791-2.363h3.947
	c4.26,0,7.205,0.777,8.838,2.331s2.449,4.347,2.449,8.379v10.611c0,4.004-0.831,6.79-2.491,8.358
	c-1.661,1.568-4.593,2.352-8.796,2.352h-3.947c-4.209,0-7.141-0.783-8.791-2.352s-2.475-4.354-2.475-8.358V76.891z M1192.007,69.431
	h-1.932c-2.197,0-3.75,0.119-4.66,0.357c-0.909,0.238-1.693,0.637-2.351,1.197c-0.616,0.533-1.05,1.251-1.302,2.154
	s-0.377,2.455-0.377,4.654v8.867c0,2.186,0.125,3.724,0.377,4.613s0.686,1.6,1.302,2.133c0.657,0.561,1.441,0.959,2.351,1.197
	c0.91,0.238,2.463,0.357,4.66,0.357h1.932c2.197,0,3.758-0.119,4.682-0.357s1.714-0.637,2.372-1.197
	c0.602-0.519,1.024-1.212,1.27-2.08c0.245-0.869,0.368-2.424,0.368-4.666v-8.909c0-2.199-0.127-3.751-0.379-4.654
	s-0.686-1.622-1.301-2.153c-0.645-0.547-1.421-0.936-2.33-1.167C1195.778,69.546,1194.218,69.431,1192.007,69.431z"/>
<path d="M1210.862,97.837v-31.25h5.334l16.947,27.893V66.587h3.438v31.25h-5.334L1214.3,69.903v27.934H1210.862z"/>
<path d="M602.06,149.437v-31.25h5.685l10.706,27.85l10.603-27.85h5.726v31.25h-3.438v-28.333l-10.791,28.333h-4.262l-10.791-28.333
	v28.333H602.06z"/>
<path d="M642.352,149.437v-31.25h3.5v31.25H642.352z"/>
<path d="M653.396,149.437v-31.25h5.334l16.947,27.893v-27.893h3.438v31.25h-5.334l-16.947-27.934v27.934H653.396z"/>
<path d="M686.716,149.437v-31.25h3.5v31.25H686.716z"/>
<path d="M696.917,139.241h3.5v0.588c0,1.862,0.139,3.234,0.418,4.117s0.741,1.506,1.384,1.869c0.503,0.28,1.278,0.48,2.326,0.6
	s3.206,0.178,6.476,0.178c1.774,0,3.15-0.115,4.129-0.347c0.978-0.231,1.704-0.605,2.18-1.124c0.265-0.279,0.46-0.756,0.586-1.428
	s0.189-1.582,0.189-2.73c0-2.324-0.235-3.784-0.705-4.379c-0.47-0.596-1.398-0.949-2.785-1.062l-9.629-0.757
	c-2.879-0.223-4.871-0.944-5.975-2.162c-1.105-1.218-1.656-3.269-1.656-6.152c0-1.819,0.182-3.282,0.545-4.389
	c0.363-1.105,0.95-2.022,1.762-2.75c0.629-0.561,1.51-0.955,2.642-1.187s3.132-0.347,5.997-0.347h1.112
	c3.207,0,5.466,0.154,6.774,0.462c1.311,0.308,2.406,0.84,3.288,1.595c0.603,0.504,1.047,1.222,1.334,2.152s0.431,2.089,0.431,3.475
	c0,0.405-0.004,0.717-0.01,0.934c-0.008,0.217-0.018,0.409-0.031,0.577h-3.5v-0.777c0-1.147-0.066-2.026-0.199-2.636
	s-0.347-1.061-0.641-1.355c-0.434-0.434-1.206-0.738-2.318-0.913c-1.111-0.175-3.219-0.263-6.324-0.263
	c-3.217,0-5.236,0.364-6.063,1.092c-0.824,0.729-1.236,2.186-1.236,4.369c0,1.793,0.269,3.029,0.807,3.708
	c0.539,0.679,1.577,1.081,3.115,1.208l9.817,0.818c2.578,0.225,4.386,0.935,5.423,2.131c1.037,1.197,1.557,3.195,1.557,5.995
	c0,2.044-0.134,3.581-0.4,4.609c-0.266,1.028-0.707,1.886-1.322,2.572c-0.756,0.854-1.775,1.452-3.057,1.796
	c-1.281,0.342-3.615,0.514-7.004,0.514H708.3c-2.879,0-4.916-0.146-6.111-0.441c-1.195-0.293-2.19-0.805-2.986-1.531
	c-0.783-0.672-1.359-1.582-1.73-2.729c-0.37-1.147-0.555-2.603-0.555-4.366V139.241z"/>
<path d="M724.165,121.499v-3.313h23.406v3.313h-10v27.938h-3.469v-27.938H724.165z"/>
<path d="M750.859,149.437v-31.25h21.906v3.313h-18.469v10.219h17.944v3.188h-17.944v11.25h18.469v3.281H750.859z M763.144,115.468
	l-5.659-7.313h3.197l4.396,7.313H763.144z"/>
<path d="M778.343,149.437v-31.25h14.096c3.518,0,5.938,0.521,7.262,1.564s1.986,2.9,1.986,5.574v4.731c0,1.639-0.333,2.924-1,3.854
	c-0.667,0.932-1.682,1.517-3.044,1.754c1.488,0.35,2.534,0.986,3.139,1.908c0.604,0.922,0.905,2.375,0.905,4.359v7.504h-3.625
	v-6.435c0-2.235-0.354-3.748-1.059-4.538c-0.707-0.789-2.088-1.184-4.145-1.184H781.78v12.156H778.343z M791.747,121.499h-9.967
	v12.531h9.967c2.602,0,4.304-0.322,5.108-0.967c0.804-0.645,1.206-1.802,1.206-3.47v-3.658c0-1.696-0.388-2.859-1.164-3.49
	S794.403,121.499,791.747,121.499z"/>
<path d="M808.409,149.437v-31.25h21.906v3.313h-18.469v10.219h17.945v3.188h-17.945v11.25h18.469v3.281H808.409z"/>
<path d="M850.423,149.437v-31.25h15.084c3.924,0,6.677,0.775,8.26,2.327s2.375,4.256,2.375,8.113v10.306
	c0,3.88-0.795,6.6-2.385,8.162c-1.591,1.561-4.34,2.342-8.25,2.342H850.423z M853.86,146.343h11.08c3.008,0,5.022-0.511,6.044-1.532
	s1.532-2.966,1.532-5.835v-10.097c0-3.022-0.508-5.045-1.521-6.066c-1.015-1.021-3.033-1.532-6.055-1.532h-11.08V146.343z"/>
<path d="M882.673,149.437v-31.25h21.906v3.313H886.11v10.219h17.945v3.188H886.11v11.25h18.469v3.281H882.673z"/>
<path d="M909.313,139.241h3.5v0.588c0,1.862,0.139,3.234,0.418,4.117s0.741,1.506,1.384,1.869c0.503,0.28,1.278,0.48,2.326,0.6
	s3.206,0.178,6.476,0.178c1.774,0,3.15-0.115,4.129-0.347c0.978-0.231,1.704-0.605,2.18-1.124c0.265-0.279,0.46-0.756,0.586-1.428
	s0.189-1.582,0.189-2.73c0-2.324-0.235-3.784-0.705-4.379c-0.47-0.596-1.398-0.949-2.785-1.062l-9.629-0.757
	c-2.879-0.223-4.871-0.944-5.975-2.162c-1.105-1.218-1.656-3.269-1.656-6.152c0-1.819,0.182-3.282,0.545-4.389
	c0.363-1.105,0.95-2.022,1.762-2.75c0.629-0.561,1.51-0.955,2.642-1.187s3.132-0.347,5.997-0.347h1.112
	c3.207,0,5.466,0.154,6.774,0.462c1.311,0.308,2.406,0.84,3.288,1.595c0.603,0.504,1.047,1.222,1.334,2.152s0.431,2.089,0.431,3.475
	c0,0.405-0.004,0.717-0.01,0.934c-0.008,0.217-0.018,0.409-0.031,0.577h-3.5v-0.777c0-1.147-0.066-2.026-0.199-2.636
	s-0.347-1.061-0.641-1.355c-0.434-0.434-1.206-0.738-2.318-0.913c-1.111-0.175-3.219-0.263-6.324-0.263
	c-3.217,0-5.236,0.364-6.063,1.092c-0.824,0.729-1.236,2.186-1.236,4.369c0,1.793,0.269,3.029,0.807,3.708
	c0.539,0.679,1.577,1.081,3.115,1.208l9.817,0.818c2.578,0.225,4.386,0.935,5.423,2.131c1.037,1.197,1.557,3.195,1.557,5.995
	c0,2.044-0.134,3.581-0.4,4.609c-0.266,1.028-0.707,1.886-1.322,2.572c-0.756,0.854-1.775,1.452-3.057,1.796
	c-1.281,0.342-3.615,0.514-7.004,0.514h-1.553c-2.879,0-4.916-0.146-6.111-0.441c-1.195-0.293-2.19-0.805-2.986-1.531
	c-0.783-0.672-1.359-1.582-1.73-2.729c-0.37-1.147-0.555-2.603-0.555-4.366V139.241z"/>
<path d="M951.091,121.499v-3.313h23.406v3.313h-10v27.938h-3.469v-27.938H951.091z"/>
<path d="M977.785,149.437v-31.25h14.096c3.517,0,5.938,0.521,7.262,1.564s1.986,2.9,1.986,5.574v4.731
	c0,1.639-0.333,2.924-1.001,3.854c-0.666,0.932-1.682,1.517-3.043,1.754c1.488,0.35,2.534,0.986,3.139,1.908
	c0.604,0.922,0.905,2.375,0.905,4.359v7.504h-3.625v-6.435c0-2.235-0.354-3.748-1.06-4.538c-0.707-0.789-2.088-1.184-4.144-1.184
	h-11.078v12.156H977.785z M991.188,121.499h-9.966v12.531h9.966c2.602,0,4.305-0.322,5.109-0.967
	c0.804-0.645,1.206-1.802,1.206-3.47v-3.658c0-1.696-0.388-2.859-1.165-3.49C995.563,121.814,993.846,121.499,991.188,121.499z"/>
<path d="M1004.539,149.437l11.546-31.25h5.689l11.608,31.25h-3.569l-2.98-8h-15.807l-2.918,8H1004.539z M1012.181,138.343h13.54
	l-6.235-16.842h-1.112L1012.181,138.343z"/>
<path d="M1037.603,149.437v-31.25h5.334l16.947,27.893v-27.893h3.438v31.25h-5.334l-16.947-27.934v27.934H1037.603z"/>
<path d="M1070.08,139.241h3.5v0.588c0,1.862,0.14,3.234,0.419,4.117s0.74,1.506,1.383,1.869c0.504,0.28,1.279,0.48,2.326,0.6
	c1.049,0.119,3.207,0.178,6.477,0.178c1.773,0,3.15-0.115,4.128-0.347s1.704-0.605,2.18-1.124c0.265-0.279,0.46-0.756,0.587-1.428
	c0.125-0.672,0.188-1.582,0.188-2.73c0-2.324-0.235-3.784-0.704-4.379c-0.471-0.596-1.398-0.949-2.785-1.062l-9.629-0.757
	c-2.88-0.223-4.871-0.944-5.976-2.162s-1.656-3.269-1.656-6.152c0-1.819,0.182-3.282,0.545-4.389c0.363-1.105,0.95-2.022,1.762-2.75
	c0.629-0.561,1.51-0.955,2.642-1.187c1.133-0.231,3.132-0.347,5.998-0.347h1.111c3.207,0,5.466,0.154,6.775,0.462
	s2.405,0.84,3.287,1.595c0.603,0.504,1.047,1.222,1.334,2.152s0.432,2.089,0.432,3.475c0,0.405-0.004,0.717-0.011,0.934
	s-0.018,0.409-0.031,0.577h-3.5v-0.777c0-1.147-0.066-2.026-0.199-2.636s-0.347-1.061-0.64-1.355
	c-0.434-0.434-1.207-0.738-2.318-0.913s-3.22-0.263-6.324-0.263c-3.217,0-5.237,0.364-6.063,1.092
	c-0.825,0.729-1.237,2.186-1.237,4.369c0,1.793,0.269,3.029,0.808,3.708c0.538,0.679,1.576,1.081,3.115,1.208l9.816,0.818
	c2.578,0.225,4.387,0.935,5.424,2.131c1.037,1.197,1.556,3.195,1.556,5.995c0,2.044-0.134,3.581-0.399,4.609
	s-0.707,1.886-1.322,2.572c-0.757,0.854-1.775,1.452-3.057,1.796c-1.281,0.342-3.616,0.514-7.004,0.514h-1.553
	c-2.879,0-4.916-0.146-6.111-0.441c-1.195-0.293-2.191-0.805-2.987-1.531c-0.782-0.672-1.359-1.582-1.729-2.729
	c-0.371-1.147-0.556-2.603-0.556-4.366V139.241z"/>
<path d="M1101.578,149.437v-31.25h13.155c3.518,0,5.939,0.521,7.264,1.564s1.987,2.9,1.987,5.574v4.731
	c0,2.74-0.655,4.634-1.966,5.683s-3.738,1.572-7.285,1.572h-9.718v12.125H1101.578z M1120.359,130.057v-4.604
	c0-1.514-0.354-2.551-1.06-3.111c-0.707-0.561-2.243-0.842-4.607-0.842h-9.677v12.531h9.677c2.322,0,3.848-0.287,4.575-0.861
	C1119.995,132.594,1120.359,131.557,1120.359,130.057z"/>
<path d="M1128.733,128.49c0-3.989,0.826-6.772,2.477-8.347c1.65-1.576,4.58-2.363,8.791-2.363h3.945c4.26,0,7.206,0.777,8.839,2.331
	c1.632,1.554,2.448,4.347,2.448,8.379v10.611c0,4.004-0.83,6.79-2.49,8.358s-4.593,2.352-8.797,2.352h-3.945
	c-4.211,0-7.141-0.783-8.791-2.352s-2.477-4.354-2.477-8.358V128.49z M1142.919,121.03h-1.932c-2.197,0-3.751,0.119-4.66,0.357
	c-0.91,0.238-1.693,0.637-2.352,1.197c-0.615,0.533-1.049,1.251-1.301,2.154s-0.379,2.455-0.379,4.654v8.867
	c0,2.186,0.127,3.724,0.379,4.613s0.686,1.6,1.301,2.133c0.658,0.561,1.441,0.959,2.352,1.197c0.909,0.238,2.463,0.357,4.66,0.357
	h1.932c2.196,0,3.756-0.119,4.68-0.357s1.715-0.637,2.373-1.197c0.602-0.519,1.024-1.212,1.27-2.08
	c0.245-0.869,0.367-2.424,0.367-4.666v-8.909c0-2.199-0.125-3.751-0.377-4.654s-0.687-1.622-1.302-2.153
	c-0.644-0.547-1.421-0.936-2.331-1.167C1146.689,121.146,1145.13,121.03,1142.919,121.03z"/>
<path d="M1161.774,149.437v-31.25h14.096c3.516,0,5.938,0.521,7.262,1.564s1.986,2.9,1.986,5.574v4.731
	c0,1.639-0.334,2.924-1.001,3.854c-0.667,0.932-1.682,1.517-3.044,1.754c1.488,0.35,2.535,0.986,3.139,1.908
	s0.906,2.375,0.906,4.359v7.504h-3.625v-6.435c0-2.235-0.354-3.748-1.061-4.538c-0.706-0.789-2.088-1.184-4.143-1.184h-11.078
	v12.156H1161.774z M1175.177,121.499h-9.965v12.531h9.965c2.602,0,4.305-0.322,5.109-0.967s1.207-1.802,1.207-3.47v-3.658
	c0-1.696-0.389-2.859-1.165-3.49S1177.835,121.499,1175.177,121.499z"/>
<path d="M1186.835,121.499v-3.313h23.406v3.313h-10v27.938h-3.469v-27.938H1186.835z"/>
<path d="M1212.686,139.241h3.5v0.588c0,1.862,0.14,3.234,0.419,4.117s0.74,1.506,1.383,1.869c0.504,0.28,1.279,0.48,2.326,0.6
	c1.049,0.119,3.207,0.178,6.477,0.178c1.773,0,3.15-0.115,4.128-0.347s1.704-0.605,2.18-1.124c0.265-0.279,0.46-0.756,0.587-1.428
	c0.125-0.672,0.188-1.582,0.188-2.73c0-2.324-0.235-3.784-0.704-4.379c-0.471-0.596-1.398-0.949-2.785-1.062l-9.629-0.757
	c-2.88-0.223-4.871-0.944-5.976-2.162s-1.656-3.269-1.656-6.152c0-1.819,0.182-3.282,0.545-4.389c0.363-1.105,0.95-2.022,1.762-2.75
	c0.629-0.561,1.51-0.955,2.642-1.187c1.133-0.231,3.132-0.347,5.998-0.347h1.111c3.207,0,5.466,0.154,6.775,0.462
	s2.405,0.84,3.287,1.595c0.603,0.504,1.047,1.222,1.334,2.152s0.432,2.089,0.432,3.475c0,0.405-0.004,0.717-0.011,0.934
	s-0.018,0.409-0.031,0.577h-3.5v-0.777c0-1.147-0.066-2.026-0.199-2.636s-0.347-1.061-0.64-1.355
	c-0.434-0.434-1.207-0.738-2.318-0.913s-3.22-0.263-6.324-0.263c-3.217,0-5.237,0.364-6.063,1.092
	c-0.825,0.729-1.237,2.186-1.237,4.369c0,1.793,0.269,3.029,0.808,3.708c0.538,0.679,1.576,1.081,3.115,1.208l9.816,0.818
	c2.578,0.225,4.387,0.935,5.424,2.131c1.037,1.197,1.556,3.195,1.556,5.995c0,2.044-0.134,3.581-0.399,4.609
	s-0.707,1.886-1.322,2.572c-0.757,0.854-1.775,1.452-3.057,1.796c-1.281,0.342-3.616,0.514-7.004,0.514h-1.553
	c-2.879,0-4.916-0.146-6.111-0.441c-1.195-0.293-2.191-0.805-2.987-1.531c-0.782-0.672-1.359-1.582-1.729-2.729
	c-0.371-1.147-0.556-2.603-0.556-4.366V139.241z"/>
<rect id="_x3C_Slice_x3E__2_" fill="none" width="1260" height="216"/>
</svg>
